<svg xmlns="http://www.w3.org/2000/svg" width="28.103" height="27.533" viewBox="0 0 28.103 27.533">
  <path id="icons8-github" d="M14.512,2.128a14.012,14.012,0,0,0-2.673,27.3V26.187a5.805,5.805,0,0,1-1.266.141,3.035,3.035,0,0,1-2.955-2.673,2.919,2.919,0,0,0-.844-1.407c-.422-.141-.563-.141-.563-.281,0-.281.422-.281.563-.281.844,0,1.548.985,1.829,1.407a2.564,2.564,0,0,0,1.97,1.407,2.809,2.809,0,0,0,1.266-.281,3.566,3.566,0,0,1,1.407-2.533c-3.236-.7-5.628-2.533-5.628-5.628a6.632,6.632,0,0,1,1.688-4.221,5.219,5.219,0,0,1-.281-1.97,4.822,4.822,0,0,1,.422-2.251,6.332,6.332,0,0,1,3.94,1.829,7.615,7.615,0,0,1,2.673-.422,9.072,9.072,0,0,1,2.814.422,6.066,6.066,0,0,1,3.94-1.829,6.993,6.993,0,0,1,.281,2.251,4.678,4.678,0,0,1-.281,1.97A6.339,6.339,0,0,1,24.5,16.057c0,3.1-2.392,4.924-5.628,5.628a4.338,4.338,0,0,1,1.407,3.236v4.643A14.086,14.086,0,0,0,14.512,2.128Z" transform="translate(-2.026 -2.031)" fill="#979797"/>
</svg>
